<svg width="24" height="24" viewBox="0 0 24 24" fill="none" xmlns="http://www.w3.org/2000/svg">
<g id="bitcoin-icons:cart-outline">
<g id="Group">
<path id="Vector" d="M10 20.5C10.8284 20.5 11.5 19.8284 11.5 19C11.5 18.1716 10.8284 17.5 10 17.5C9.17157 17.5 8.5 18.1716 8.5 19C8.5 19.8284 9.17157 20.5 10 20.5Z" stroke="#3A3A3A"/>
<path id="Vector_2" d="M17 20.5C17.8284 20.5 18.5 19.8284 18.5 19C18.5 18.1716 17.8284 17.5 17 17.5C16.1716 17.5 15.5 18.1716 15.5 19C15.5 19.8284 16.1716 20.5 17 20.5Z" stroke="#3A3A3A"/>
<path id="Vector_3" d="M3.5 4H5.5L9.004 15H17" stroke="#3A3A3A" stroke-linecap="round" stroke-linejoin="round"/>
<path id="Vector_4" d="M8.22478 12.5L6.30078 6.5H18.8078C18.887 6.4999 18.9652 6.51865 19.0358 6.5547C19.1064 6.59075 19.1674 6.64307 19.2138 6.70734C19.2602 6.77162 19.2907 6.846 19.3026 6.92435C19.3146 7.00271 19.3078 7.08279 19.2828 7.158L17.6158 12.158C17.5826 12.2575 17.519 12.3441 17.434 12.4055C17.3489 12.4669 17.2467 12.4999 17.1418 12.5H8.22478Z" stroke="#3A3A3A" stroke-linecap="round" stroke-linejoin="round"/>
</g>
</g>
</svg>
