<svg width="24" height="24" viewBox="0 0 24 24" fill="none" xmlns="http://www.w3.org/2000/svg">
<path d="M21 11.997C21 13.2417 20.7637 14.4117 20.291 15.507C19.819 16.6023 19.178 17.5553 18.368 18.366C17.558 19.1767 16.6053 19.8183 15.51 20.291C14.4147 20.7637 13.2447 21 12 21C10.8067 21 9.683 20.7837 8.629 20.351C7.575 19.9183 6.645 19.3203 5.839 18.557C5.03233 17.7937 4.37667 16.897 3.872 15.867C3.36733 14.837 3.08067 13.7273 3.012 12.538C3.004 12.3793 3.04767 12.2583 3.143 12.175C3.23833 12.0917 3.347 12.0483 3.469 12.045C3.591 12.0417 3.711 12.076 3.829 12.148C3.947 12.22 4.00967 12.35 4.017 12.538C4.15167 14.658 4.986 16.4357 6.52 17.871C8.054 19.3063 9.88067 20.0243 12 20.025C14.2333 20.025 16.125 19.25 17.675 17.7C19.225 16.15 20 14.2583 20 12.025C20 9.79167 19.225 7.9 17.675 6.35C16.125 4.8 14.2333 4.025 12 4.025C10.376 4.025 8.921 4.45167 7.635 5.305C6.35033 6.15833 5.39 7.27467 4.754 8.654H7.154C7.29533 8.654 7.414 8.702 7.51 8.798C7.606 8.894 7.654 9.013 7.654 9.155C7.654 9.297 7.606 9.41567 7.51 9.511C7.414 9.60633 7.29533 9.654 7.154 9.654H3.814C3.578 9.654 3.38333 9.57667 3.23 9.422C3.07667 9.26733 3 9.07533 3 8.846V5.5C3 5.358 3.048 5.23933 3.144 5.144C3.24 5.04867 3.359 5.00067 3.501 5C3.643 4.99933 3.76167 5.04733 3.857 5.144C3.95233 5.24067 4 5.35933 4 5.5V7.98C4.72467 6.49467 5.79467 5.29333 7.21 4.376C8.62533 3.45867 10.222 3 12 3C13.2453 3 14.4153 3.23633 15.51 3.709C16.6047 4.18167 17.5573 4.82233 18.368 5.631C19.1787 6.43967 19.8197 7.392 20.291 8.488C20.7623 9.584 20.9987 10.7537 21 11.997ZM8.185 16H9.131L9.723 14.485C9.85633 14.1477 10.1267 13.881 10.534 13.685C10.942 13.4897 11.6647 13.392 12.702 13.392C13.0553 13.392 13.3813 13.49 13.68 13.686C13.9787 13.882 14.1943 14.1483 14.327 14.485L14.802 15.717C14.844 15.8137 14.9003 15.885 14.971 15.931C15.0417 15.977 15.127 16 15.227 16H15.233C15.389 16 15.511 15.938 15.599 15.814C15.6877 15.6893 15.7053 15.548 15.652 15.39L12.417 7.186C12.393 7.126 12.3437 7.08 12.269 7.048C12.1943 7.016 12.07 7 11.896 7C11.8373 7 11.783 7.016 11.733 7.048C11.683 7.08 11.6457 7.126 11.621 7.186L8.185 16ZM10.458 12.592L11.95 8.573H12.05L13.58 12.593L10.458 12.592Z" fill="white"/>
</svg>
