<svg width="24" height="24" viewBox="0 0 24 24" fill="none" xmlns="http://www.w3.org/2000/svg">
<g clip-path="url(#clip0_176_173)">
<path d="M19 5H5C4.73478 5 4.48043 5.10536 4.29289 5.29289C4.10536 5.48043 4 5.73478 4 6V18C4 18.2652 4.10536 18.5196 4.29289 18.7071C4.48043 18.8946 4.73478 19 5 19H19C19.2652 19 19.5196 18.8946 19.7071 18.7071C19.8946 18.5196 20 18.2652 20 18V6C20 5.73478 19.8946 5.48043 19.7071 5.29289C19.5196 5.10536 19.2652 5 19 5ZM5 18V6H19V18H5Z" fill="white"/>
<path d="M8 11C8.39556 11 8.78224 10.8827 9.11114 10.6629C9.44004 10.4432 9.69638 10.1308 9.84776 9.76537C9.99913 9.39992 10.0387 8.99778 9.96157 8.60982C9.8844 8.22186 9.69392 7.86549 9.41421 7.58579C9.13451 7.30608 8.77814 7.1156 8.39018 7.03843C8.00222 6.96126 7.60009 7.00087 7.23463 7.15224C6.86918 7.30362 6.55682 7.55996 6.33706 7.88886C6.1173 8.21776 6 8.60444 6 9C6 9.53043 6.21071 10.0391 6.58579 10.4142C6.96086 10.7893 7.46957 11 8 11ZM8 7.93333C8.21125 7.93201 8.41813 7.99345 8.59441 8.10985C8.7707 8.22625 8.90846 8.39238 8.99021 8.58717C9.07197 8.78195 9.09405 8.99663 9.05364 9.20398C9.01324 9.41133 8.91218 9.60202 8.76327 9.75186C8.61437 9.9017 8.42432 10.004 8.21723 10.0457C8.01013 10.0874 7.79532 10.0666 7.60003 9.98609C7.40473 9.90556 7.23774 9.76885 7.12024 9.5933C7.00273 9.41774 6.94 9.21125 6.94 9C6.94175 8.71941 7.05399 8.45081 7.2524 8.2524C7.45081 8.05399 7.71941 7.94175 8 7.94V7.93333Z" fill="white"/>
<path d="M15.1863 11.2467L11.5863 14.8467L8.91962 12.18C8.79471 12.0558 8.62575 11.9861 8.44962 11.9861C8.2735 11.9861 8.10453 12.0558 7.97962 12.18L3.94629 16.2667V18.1533L8.47296 13.6267L10.6663 15.7867L8.16629 18.2867H9.99962L15.633 12.6533L19.9996 17V15.12L16.1263 11.2467C16.0014 11.1225 15.8324 11.0528 15.6563 11.0528C15.4802 11.0528 15.3112 11.1225 15.1863 11.2467Z" fill="white"/>
<path d="M1.33301 9.33334V2.66667H6.66634H7.99967" stroke="white" stroke-width="0.8" stroke-linecap="round"/>
<path d="M22.667 14.6667L22.667 21.3333L17.3337 21.3333H16.0003" stroke="white" stroke-width="0.8" stroke-linecap="round"/>
<path d="M16.0003 2.66667L22.667 2.66667V8V9.33334" stroke="white" stroke-width="0.8" stroke-linecap="round"/>
<path d="M7.99967 21.3333H1.33301L1.33301 16V14.6667" stroke="white" stroke-width="0.8" stroke-linecap="round"/>
</g>
<defs>
<clipPath id="clip0_176_173">
<rect width="24" height="24" fill="white"/>
</clipPath>
</defs>
</svg>
