<svg width="21" height="20" viewBox="0 0 21 20" fill="none" xmlns="http://www.w3.org/2000/svg">
<path d="M10.333 3C9.41375 3 8.5035 3.18106 7.65422 3.53284C6.80494 3.88463 6.03327 4.40024 5.38326 5.05025C4.73325 5.70026 4.21763 6.47194 3.86585 7.32122C3.51407 8.1705 3.33301 9.08075 3.33301 10C3.33301 10.9193 3.51407 11.8295 3.86585 12.6788C4.21763 13.5281 4.73325 14.2997 5.38326 14.9497C6.03327 15.5998 6.80494 16.1154 7.65422 16.4672C8.5035 16.8189 9.41375 17 10.333 17C12.1895 17 13.97 16.2625 15.2828 14.9497C16.5955 13.637 17.333 11.8565 17.333 10C17.333 8.14348 16.5955 6.36301 15.2828 5.05025C13.97 3.7375 12.1895 3 10.333 3ZM2.33301 10C2.33301 7.87827 3.17586 5.84344 4.67615 4.34315C6.17644 2.84285 8.21128 2 10.333 2C12.4547 2 14.4896 2.84285 15.9899 4.34315C17.4902 5.84344 18.333 7.87827 18.333 10C18.333 12.1217 17.4902 14.1566 15.9899 15.6569C14.4896 17.1571 12.4547 18 10.333 18C8.21128 18 6.17644 17.1571 4.67615 15.6569C3.17586 14.1566 2.33301 12.1217 2.33301 10Z" fill="#454B26"/>
</svg>
