<svg width="20" height="20" viewBox="0 0 20 20" fill="none" xmlns="http://www.w3.org/2000/svg">
<path d="M10.7498 9.997L16.3778 4.3635C16.4771 4.26372 16.5328 4.12865 16.5327 3.98789C16.5326 3.84713 16.4767 3.71214 16.3773 3.6125C16.1783 3.4145 15.8278 3.4135 15.6268 3.6135L10.0003 9.247L4.37179 3.612C4.17179 3.4145 3.82129 3.41549 3.62229 3.613C3.57289 3.66219 3.53379 3.72073 3.50726 3.7852C3.48074 3.84967 3.46732 3.91878 3.46779 3.9885C3.46779 4.1305 3.52279 4.2635 3.62229 4.362L9.25029 9.9965L3.62279 15.6315C3.52348 15.7314 3.46786 15.8667 3.46815 16.0076C3.46843 16.1484 3.52458 16.2835 3.62429 16.383C3.72079 16.4785 3.85729 16.5335 3.99829 16.5335H4.00129C4.14279 16.533 4.27929 16.4775 4.37379 16.381L10.0003 10.7475L15.6288 16.3825C15.7283 16.4815 15.8613 16.5365 16.0023 16.5365C16.072 16.5367 16.1411 16.5231 16.2055 16.4965C16.27 16.4699 16.3285 16.4309 16.3778 16.3816C16.4271 16.3323 16.4662 16.2737 16.4928 16.2092C16.5194 16.1448 16.533 16.0757 16.5328 16.006C16.5328 15.8645 16.4778 15.731 16.3778 15.6325L10.7498 9.997Z" fill="#454B26"/>
</svg>
